<svg width="14" height="14" viewBox="0 0 14 14" fill="none" xmlns="http://www.w3.org/2000/svg">
<path d="M11.9999 0.99993C12.2761 0.723791 12.7238 0.72379 12.9999 0.999929C13.2761 1.27607 13.2761 1.72378 12.9999 1.99992L2.00006 12.9998C1.72392 13.2759 1.27621 13.2759 1.00007 12.9998C0.723931 12.7236 0.723931 12.2759 1.00007 11.9998L11.9999 0.99993Z" fill="#757575"/>
<path d="M1.00007 1.99992C0.723931 1.72378 0.723931 1.27607 1.00007 0.999929C1.27621 0.72379 1.72392 0.72379 2.00006 0.999929L12.9999 11.9998C13.2761 12.2759 13.2761 12.7236 12.9999 12.9998C12.7238 13.2759 12.2761 13.2759 11.9999 12.9998L1.00007 1.99992Z" fill="#757575"/>
</svg>
