<svg width="30" height="30" viewBox="0 0 30 30" fill="none" xmlns="http://www.w3.org/2000/svg">
<path d="M12.0312 17.125L13.1562 13.5312L10.1875 11.2188H13.8125L15 7.5L16.1562 11.2188H19.8125L16.8438 13.5312L17.9375 17.125L15 14.9062L12.0312 17.125ZM7.625 28.75V19.25C6.6875 18.2708 6.01562 17.1979 5.60938 16.0312C5.20312 14.8646 5 13.6875 5 12.5C5 9.66667 5.95833 7.29167 7.875 5.375C9.79167 3.45833 12.1667 2.5 15 2.5C17.8333 2.5 20.2083 3.45833 22.125 5.375C24.0417 7.29167 25 9.66667 25 12.5C25 13.6875 24.7969 14.8646 24.3906 16.0312C23.9844 17.1979 23.3125 18.2708 22.375 19.25V28.75L15 26.2812L7.625 28.75ZM15 20.625C17.2708 20.625 19.1927 19.8385 20.7656 18.2656C22.3385 16.6927 23.125 14.7708 23.125 12.5C23.125 10.2292 22.3385 8.30729 20.7656 6.73438C19.1927 5.16146 17.2708 4.375 15 4.375C12.7292 4.375 10.8073 5.16146 9.23438 6.73438C7.66146 8.30729 6.875 10.2292 6.875 12.5C6.875 14.7708 7.66146 16.6927 9.23438 18.2656C10.8073 19.8385 12.7292 20.625 15 20.625ZM9.5 26.125L15 24.4062L20.5 26.125V20.7812C19.6667 21.3854 18.7708 21.8229 17.8125 22.0938C16.8542 22.3646 15.9167 22.5 15 22.5C14.0833 22.5 13.1458 22.3646 12.1875 22.0938C11.2292 21.8229 10.3333 21.3854 9.5 20.7812V26.125Z" fill="#202020"/>
</svg>
